<svg xmlns="http://www.w3.org/2000/svg" viewBox="0 0 93.38 36.74"><defs><style>.cls-1{fill-rule:evenodd;}</style></defs><g id="Layer_2" data-name="Layer 2"><g id="Laag_1" data-name="Laag 1"><path class="cls-1" d="M86.3,29.26c-.52-.26-.25-1,.28-1.21a8.29,8.29,0,0,0,2.25-1,5.94,5.94,0,0,0,2.06-1.9c.91-1.24,1.45-2.36,1-3.88a.67.67,0,0,0-.56-.48,1,1,0,0,0-.75.52c-.54.94-.19,2.41-1.27,3a.8.8,0,0,1-.55,0c-.67-.07-1.35-.45-2.12-.19s-1.15,1-2.21,1.1a1.54,1.54,0,0,1-1.76-1c-.19-.36-.31-1-.9-1.08a2.26,2.26,0,0,0-1.59.55c-1.08.84-1.47,1.42-2.52,1.19s-.61-1.76-1.22-2-1.53.75-2,1.11-1.17,1.17-1.55,1.43a1.45,1.45,0,0,1-1.61-.19c-1.4-1-1.71-2-1.69-2.52,0-.74,1.07-1,1.27-1.07.43-.07.67.08.75.28.19.49,0,1.87.64,2s1.5-.78,2.48-1.79c.4-.42.76-1,1.15-1.38a2.16,2.16,0,0,1,1.25-.74c.5,0,.79.36.78,1a14,14,0,0,0-.25,1.71c0,.49.1.93.47,1,1.13.2,2.47-2,2.79-2.44a1.81,1.81,0,0,1,1.73-.55A1.56,1.56,0,0,1,83.57,22c0,.53-.06,1.28.41,1.56s1.63-.09,2.69-.53c.58-.24,1.14-.12,1.64-.29,1.13-.38.61-2.72,2.18-3.27a2.76,2.76,0,0,1,1.66,0,2.14,2.14,0,0,1,1.1,1.69c0,.27.59,1.74-1.06,4.31a9,9,0,0,1-3.34,3.07C88,29,87,29.6,86.3,29.26Z"/><path class="cls-1" d="M63.75,28.48c0-.39.84-4.5.88-4.95,0-.16-.37-.18-.68.16a2.75,2.75,0,0,1-2.72,1.4A1.5,1.5,0,0,1,60,24c-.08-.22-.16-.78-.39-.79s-.65.38-.8.77-.38,1-.74,1.14a2.36,2.36,0,0,1-2.19-.31,1.39,1.39,0,0,1-.3-1.68,7.67,7.67,0,0,1,1.61-1.79,2.82,2.82,0,0,1,1.71-.59c.46.09.65.34.92.34s1.12-.1,1.21.35c.15.78,0,1.83.26,2.18a.9.9,0,0,0,1.31.12c1.22-.92,2-2.82,3.78-3.07.34-.52,1.86-4,2.71-4.85a1.63,1.63,0,0,1,2.28-.05c.74.86.36,1.53-.53,1.81a3.58,3.58,0,0,0-1.78,1.3,15.62,15.62,0,0,0-2.87,5.21c-.52,1.54-.67,2.87-1.19,4.36,0,.11-.08.27-.17.33s-1.09.55-1.12-.29Zm-6.54-4.67c-1.25-.18.12-1.38.57-1.61.22-.11.93-.17,1,0,.13.34-1,1.72-1.56,1.64Z"/><path class="cls-1" d="M46.06,26.53a2.23,2.23,0,0,1,.39-1.77,7.32,7.32,0,0,1,1.12-1.16c.32-.26,1.08-.78,1.7-1.28a4.63,4.63,0,0,0,.89-.89c.1-.18.12-.53,0-.62s-.26.05-.4.11a10.18,10.18,0,0,1-2.13.9,1.42,1.42,0,0,1-1.16-.25.52.52,0,0,1,0-.8,13.89,13.89,0,0,1,2.8-1.12,4,4,0,0,1,1-.13,1.18,1.18,0,0,1,1,.79,3.13,3.13,0,0,1,.36,1.52c0,.59-.66.88-1.08.92a2.88,2.88,0,0,0-.67.12,5,5,0,0,0-.94.66,2.83,2.83,0,0,0-1.13,1.94c-.08.83,1.06.68,1.21.68a4.08,4.08,0,0,0,1.65-.72,8,8,0,0,1,1-.59.79.79,0,0,1,.72,0,.61.61,0,0,1,.17,1c-.27.39-1,.52-1.71.74a8.67,8.67,0,0,1-3.6.9,1.37,1.37,0,0,1-1.15-.87Z"/><path class="cls-1" d="M34.68,34.9c-.13.06-.4.15-1,.35a9.91,9.91,0,0,1-4.08.13C28,35.08,22,33.1,23.44,25.64c.64-3.21,2.57-5.5,6.71-6.24a27.35,27.35,0,0,1,5.43-.48,14.63,14.63,0,0,1,6.13,1.37c.17.08.38.28.57.36a.93.93,0,0,0,.92-.27.53.53,0,0,0-.17-.77c-1.12-.93-3.76-1.71-7.18-1.87a41,41,0,0,0-6.6.27c-1.08.08-.6-.41-.53-.49a32.64,32.64,0,0,1,8.56-7.23c5.13-3.17,8.4-3.85,9.18-3.94s2.22.56,3.35.76c.78.14,1.7.18,1.91-.11s.1-.57-.83-1a13.09,13.09,0,0,0-4.06-.9c-3.62.2-6.85,2.09-10.6,4.36a46.2,46.2,0,0,0-8.54,6.88c-.72.8-1.46,1.43-1.78,1.84a2.64,2.64,0,0,1-1.1.58,74.22,74.22,0,0,0-13.32,3.89C4,25.57,1.09,28.18.24,29.49a1,1,0,0,0,0,1.33,5.47,5.47,0,0,0,1.76,1,5.87,5.87,0,0,0,2.36.49c.3-.05.35-.22.4-.41s-.12-.41-.17-.6-.56-.46-1.31-.65c-.41-.11-1.71-.66-.5-1.66,2.1-1.74,4-3,9.24-5.12,7.72-3.07,10.77-3.25,11.55-3.38s.47.21.14.66a9.61,9.61,0,0,0-1.89,4.7c-1.16,8.3,5.49,10.5,7.65,10.81a9.33,9.33,0,0,0,5.61-.79c.29-.18.29-.47.2-.83-.05-.17-.1-.34-.6-.11Z"/><path class="cls-1" d="M36.73,35.06c.18-.1.49-.44.39-.7s-.54-.29-.76-.2-.65.12-.73.37,0,.29.08.44c.1.33.57.34,1,.09Z"/><path class="cls-1" d="M37.52,34.39a1.3,1.3,0,0,0,1.14-.11c.34-.15.57-.5,1-.65s.69-.41,1.07-.53c1-.36,1.31-1.08.6-1a16.8,16.8,0,0,0-3.77,1.45.49.49,0,0,0,0,.85Z"/><path class="cls-1" d="M6.32,32.51a.89.89,0,0,1-.66-.29c-.16-.16-.34-.15-.45-.53s.52-.51.77-.47a4.82,4.82,0,0,0,1.25.09c.59-.09,1-.06,1.25.19s.28.34,0,.65a1.92,1.92,0,0,1-1.29.34l-.87,0Z"/><path class="cls-1" d="M9.11,31.7a.32.32,0,0,1,.15-.36,1.43,1.43,0,0,1,.78-.12c.11,0,.26.1.28.23s0,.38-.22.53-.2.16-.44.16l-.17,0c-.29,0-.32-.2-.38-.42Z"/><polygon class="cls-1" points="13.32 8.4 13.32 0.06 17.91 0.06 17.91 1.48 15 1.48 15 3.38 17.77 3.38 17.77 4.84 14.99 4.84 14.99 6.95 17.92 6.95 17.92 8.4 13.32 8.4 13.32 8.4"/><path class="cls-1" d="M23.35,3.29C22.12,3,21.5,3.83,21.5,5.68V8.4H19.79V1.75h1.62a8.7,8.7,0,0,1-.12,1.33h0A2,2,0,0,1,23.43,1.6l-.08,1.69Z"/><path class="cls-1" d="M28,5.61a1.54,1.54,0,0,1-1.42,1.61.7.7,0,0,1-.79-.71c0-.53.4-1.06,2.21-1.06v.16ZM29.72,8.4c0-.55,0-1.18,0-1.71V3.91c0-1.44-.6-2.31-2.74-2.31A7.33,7.33,0,0,0,24.55,2l.15,1.44a4.28,4.28,0,0,1,2-.53c1,0,1.3.37,1.3,1.06v.36c-2.27,0-3.85.85-3.85,2.44A1.69,1.69,0,0,0,26,8.53a2.24,2.24,0,0,0,2.12-1.27h0A6.86,6.86,0,0,0,28.1,8.4Z"/><path class="cls-1" d="M32.71,8.53a8.8,8.8,0,0,1-1.4-.12l0-1.4a6.33,6.33,0,0,0,1.44.2c.65,0,1.08-.27,1.08-.71,0-1.18-2.69-.51-2.69-2.77,0-1.17,1-2.13,2.82-2.13a7.31,7.31,0,0,1,1.22.12l0,1.35a4.57,4.57,0,0,0-1.23-.17c-.67,0-1,.26-1,.68,0,1.08,2.73.6,2.73,2.76,0,1.31-1.15,2.19-3,2.19Z"/><path class="cls-1" d="M45.17,8.4V4.18C45.17,3.47,45,3,44.38,3s-1.53.88-1.53,2.18V8.4H41.16V4.18C41.16,3.53,41,3,40.38,3S38.85,4,38.85,5.21V8.4H37.14V1.75h1.62a7.62,7.62,0,0,1-.1,1.19h0A2.37,2.37,0,0,1,40.88,1.6a1.73,1.73,0,0,1,1.84,1.34A2.35,2.35,0,0,1,44.89,1.6c1.28,0,2,.71,2,2.22V8.4Z"/><path class="cls-1" d="M52.9,8.4A7,7,0,0,1,53,7.22h0a2.41,2.41,0,0,1-2.26,1.34c-1.5,0-2-1-2-2.13V1.75h1.7V6c0,.7.19,1.11.83,1.11.87,0,1.54-1,1.54-2.15V1.75h1.71V8.4Z"/><path class="cls-1" d="M57.51,8.53a8.77,8.77,0,0,1-1.39-.12l0-1.4a6.17,6.17,0,0,0,1.43.2c.66,0,1.08-.27,1.08-.71C58.67,5.32,56,6,56,3.73c0-1.17,1-2.13,2.83-2.13A7.31,7.31,0,0,1,60,1.72L60,3.07a4.46,4.46,0,0,0-1.23-.17c-.67,0-1,.26-1,.68,0,1.08,2.73.6,2.73,2.76,0,1.31-1.15,2.19-3,2.19Z"/><path class="cls-1" d="M71.33,8.4l-.6-4c-.12-.79-.19-1.4-.26-2h0A16.7,16.7,0,0,1,70,4.21L68.67,8.4H67.08L65.8,4.53a13.63,13.63,0,0,1-.53-2.09h0c0,.74-.14,1.39-.24,2.12L64.54,8.4H62.91L64.2.06h1.87l1.4,4.29a12.55,12.55,0,0,1,.46,1.75h0a13,13,0,0,1,.47-1.73L69.86.06h1.86L73,8.4Z"/><path class="cls-1" d="M78,8.51c-2.92,0-3.86-1.94-3.86-4,0-2.65,1.38-4.5,4.18-4.5a6.79,6.79,0,0,1,1.76.22L80,1.68a5.94,5.94,0,0,0-1.68-.25C76.71,1.43,76,2.61,76,4.23c0,1.81.75,2.83,2.43,2.83A4.35,4.35,0,0,0,80,6.71l.18,1.43A6.48,6.48,0,0,1,78,8.51Z"/><path class="cls-1" d="M14.3,13.44c-.8,0-1-.44-1-.92V10.87h.49v1.62c0,.32.1.54.52.54s.53-.16.53-.59V10.87h.49v1.54a.93.93,0,0,1-1,1Z"/><path class="cls-1" d="M17.2,13.4V12.2c0-.19-.06-.31-.23-.31s-.44.28-.44.61v.9h-.48V11.53h.46a1.84,1.84,0,0,1,0,.33h0a.68.68,0,0,1,.63-.38c.42,0,.55.27.55.6V13.4Z"/><path class="cls-1" d="M18.92,11a.3.3,0,1,0-.3.29.29.29,0,0,0,.3-.29Zm-.06,2.4V11.53h-.48V13.4Z"/><path class="cls-1" d="M20.49,13.4H20l-.69-1.87h.52l.3.84c0,.13.09.28.12.41h0c0-.12.07-.27.11-.39l.3-.86h.51l-.7,1.87Z"/><path class="cls-1" d="M22.63,12.21h-.69a.38.38,0,0,1,.37-.37.32.32,0,0,1,.32.37Zm.48.11a.75.75,0,0,0-.79-.83.88.88,0,0,0-.87,1,.83.83,0,0,0,.92.95,1.85,1.85,0,0,0,.67-.12L23,12.94a1.25,1.25,0,0,1-.54.12.45.45,0,0,1-.51-.52h1.15a1.8,1.8,0,0,0,0-.22Z"/><path class="cls-1" d="M24.69,12c-.34-.07-.52.16-.52.67v.77h-.48V11.53h.46a1.82,1.82,0,0,1,0,.38h0a.57.57,0,0,1,.59-.42l0,.47Z"/><path class="cls-1" d="M25.53,13.43a2.47,2.47,0,0,1-.39,0l0-.39a1.56,1.56,0,0,0,.4.05c.18,0,.3-.07.3-.2,0-.33-.75-.14-.75-.77,0-.33.26-.6.79-.6a2,2,0,0,1,.34,0l0,.37a1.27,1.27,0,0,0-.34,0c-.19,0-.28.07-.28.19,0,.3.77.16.77.77,0,.37-.33.61-.84.61Z"/><path class="cls-1" d="M27.2,11.29a.29.29,0,1,1,.3-.29.29.29,0,0,1-.3.29ZM27,13.4V11.53h.48V13.4Z"/><path class="cls-1" d="M28.77,13.43c-.41,0-.54-.15-.54-.58V11.9h-.32v-.37h.32V11l.48-.13v.7h.45v.37h-.45v.82c0,.24.05.31.22.31a.85.85,0,0,0,.23,0v.38a1.67,1.67,0,0,1-.39,0Z"/><path class="cls-1" d="M30.58,13.57c-.22.58-.41.75-.84.75a1.15,1.15,0,0,1-.26,0l0-.41a.73.73,0,0,0,.25,0c.16,0,.27-.07.36-.34l.07-.18-.69-1.87H30l.26.72c.05.16.1.34.14.51h0c.05-.17.12-.42.18-.59l.23-.64h.51l-.77,2Z"/><path class="cls-1" d="M35.41,13.4l-.18-1.21c0-.24-.06-.43-.08-.6h0a5.18,5.18,0,0,1-.13.54l-.4,1.27h-.49l-.38-1.18a3.68,3.68,0,0,1-.17-.63h0c0,.22,0,.42-.07.64l-.15,1.17h-.49l.39-2.53h.57l.42,1.3a3.46,3.46,0,0,1,.14.53h0a4.58,4.58,0,0,1,.14-.53l.43-1.3h.57l.39,2.53Z"/><path class="cls-1" d="M38,12.54H36.84a.46.46,0,0,0,.52.52,1.25,1.25,0,0,0,.54-.12l0,.37a1.76,1.76,0,0,1-.66.12c-.6,0-.92-.29-.92-.95a.88.88,0,0,1,.87-1,.74.74,0,0,1,.78.83,1.7,1.7,0,0,1,0,.22Zm-.79-.7a.37.37,0,0,0-.36.37h.69c0-.23-.12-.37-.33-.37Z"/><path class="cls-1" d="M39.69,12.43c0,.32-.15.61-.4.61s-.32-.18-.32-.53.2-.63.47-.63a1.07,1.07,0,0,1,.25,0v.52Zm.48,1V10.66h-.48v.85h-.23a1,1,0,0,0-1,1.06c0,.54.23.88.68.88a.62.62,0,0,0,.59-.36h0a1.91,1.91,0,0,0,0,.32Z"/><path class="cls-1" d="M41.12,11.29a.29.29,0,1,1,0-.58.29.29,0,1,1,0,.58Zm-.24,2.11V11.53h.48V13.4Z"/><path class="cls-1" d="M42.77,13.43c-.52,0-.84-.27-.84-.9a.92.92,0,0,1,1-1,1.67,1.67,0,0,1,.39.05l-.05.42a.94.94,0,0,0-.34-.07c-.3,0-.46.23-.46.58s.13.53.44.53a.75.75,0,0,0,.37-.08l0,.41a1.46,1.46,0,0,1-.51.09Z"/><path class="cls-1" d="M44.84,13.4a1.67,1.67,0,0,1,0-.32h0a.63.63,0,0,1-.59.35.47.47,0,0,1-.53-.49c0-.44.44-.68,1.07-.68v-.1c0-.2-.09-.3-.36-.3a1.19,1.19,0,0,0-.55.15l0-.4a1.89,1.89,0,0,1,.66-.12c.6,0,.77.25.77.65v.78c0,.15,0,.32,0,.48Zm0-.83c-.51,0-.62.15-.62.3a.2.2,0,0,0,.22.2.43.43,0,0,0,.4-.45v0Z"/><polygon class="cls-1" points="45.99 13.39 45.99 10.66 46.47 10.66 46.47 13.39 45.99 13.39 45.99 13.39"/><path class="cls-1" d="M49.46,13.43a1.09,1.09,0,0,1-1.17-1.22,1.21,1.21,0,0,1,1.27-1.36,2.26,2.26,0,0,1,.53.06l-.05.45a1.75,1.75,0,0,0-.51-.08c-.47,0-.7.36-.7.85s.23.86.74.86a1.35,1.35,0,0,0,.49-.11l0,.44a2.1,2.1,0,0,1-.65.11Z"/><path class="cls-1" d="M51.71,12.21H51a.37.37,0,0,1,.36-.37.32.32,0,0,1,.32.37Zm.48.11a.74.74,0,0,0-.78-.83.88.88,0,0,0-.88,1,.83.83,0,0,0,.92.95,1.81,1.81,0,0,0,.67-.12l0-.37a1.26,1.26,0,0,1-.55.12.45.45,0,0,1-.51-.52h1.15a1.8,1.8,0,0,0,0-.22Z"/><path class="cls-1" d="M53.92,13.4V12.2c0-.19-.05-.31-.23-.31s-.43.28-.43.61v.9h-.48V11.53h.45a1.84,1.84,0,0,1,0,.33h0a.68.68,0,0,1,.63-.38c.42,0,.56.27.56.6V13.4Z"/><path class="cls-1" d="M55.71,13.43c-.41,0-.54-.15-.54-.58V11.9h-.32v-.37h.32V11l.48-.13v.7h.45v.37h-.45v.82c0,.24.05.31.22.31a.85.85,0,0,0,.23,0v.38a1.67,1.67,0,0,1-.39,0Z"/><path class="cls-1" d="M58.19,12.54H57a.46.46,0,0,0,.52.52,1.25,1.25,0,0,0,.54-.12l0,.37a1.76,1.76,0,0,1-.66.12.83.83,0,0,1-.92-.95.88.88,0,0,1,.87-1,.74.74,0,0,1,.78.83,1.7,1.7,0,0,1,0,.22Zm-.79-.7a.38.38,0,0,0-.36.37h.69c0-.23-.12-.37-.33-.37Z"/><path class="cls-1" d="M59.79,12c-.35-.07-.52.16-.52.67v.77h-.48V11.53h.45a2.75,2.75,0,0,1,0,.38h0a.57.57,0,0,1,.59-.42l0,.47Z"/><path class="cls-1" d="M62.64,11.61c0,.24-.18.39-.47.39H62v-.73h.19c.31,0,.46.12.46.36Zm.68,1.79-.61-.86-.21-.27a.71.71,0,0,0,.65-.71c0-.51-.36-.71-.92-.71-.29,0-.53,0-.73,0V13.4H62V12.35h0l.7,1.05Z"/><path class="cls-1" d="M64.93,12.45c0,.38-.18.57-.41.57s-.42-.19-.42-.57.21-.55.42-.55.41.2.41.55Zm.5,0a.81.81,0,0,0-.87-.93.94.94,0,0,0-1,1c0,.66.35.93.87.93a1,1,0,0,0,1-1Z"/><path class="cls-1" d="M66.63,13.43c-.42,0-.54-.15-.54-.58V11.9h-.33v-.37h.32V11l.48-.13v.7H67v.37h-.45v.82c0,.24.06.31.22.31A.8.8,0,0,0,67,13v.38a1.58,1.58,0,0,1-.38,0Z"/><path class="cls-1" d="M68.22,13.43c-.41,0-.54-.15-.54-.58V11.9h-.32v-.37h.31V11l.48-.13v.7h.46v.37h-.46v.82c0,.24.06.31.22.31a.93.93,0,0,0,.24,0v.38a1.67,1.67,0,0,1-.39,0Z"/><path class="cls-1" d="M70.23,12.21h-.68a.37.37,0,0,1,.36-.37.32.32,0,0,1,.32.37Zm.48.11a.74.74,0,0,0-.78-.83.88.88,0,0,0-.88,1,.83.83,0,0,0,.92.95,1.81,1.81,0,0,0,.67-.12l0-.37a1.26,1.26,0,0,1-.55.12.45.45,0,0,1-.51-.52h1.15a.86.86,0,0,0,0-.22Z"/><path class="cls-1" d="M72.29,12c-.34-.07-.51.16-.51.67v.77H71.3V11.53h.45a2.75,2.75,0,0,1,0,.38h0a.57.57,0,0,1,.6-.42l0,.47Z"/><path class="cls-1" d="M73.89,12.43c0,.32-.15.61-.4.61s-.32-.18-.32-.53.19-.63.47-.63l.25,0v.52Zm.48,1V10.66h-.48v.85h-.24a1,1,0,0,0-1,1.06c0,.54.22.88.68.88a.61.61,0,0,0,.58-.36h0c0,.11,0,.23,0,.32Z"/><path class="cls-1" d="M76,12.62a.43.43,0,0,1-.39.45.2.2,0,0,1-.23-.2c0-.15.12-.3.62-.3v0Zm.49.78c0-.16,0-.33,0-.48v-.78c0-.4-.17-.65-.77-.65a1.94,1.94,0,0,0-.66.12l0,.4a1.23,1.23,0,0,1,.55-.15c.27,0,.36.1.36.3v.1c-.63,0-1.07.24-1.07.68a.47.47,0,0,0,.53.49.63.63,0,0,0,.6-.35h0a1.67,1.67,0,0,0,0,.32Z"/><path class="cls-1" d="M79.47,13.4V12.21c0-.19,0-.32-.22-.32s-.43.25-.43.61v.9h-.47V12.21c0-.18,0-.32-.22-.32s-.43.27-.43.61v.9h-.48V11.53h.46a2.14,2.14,0,0,1,0,.34h0a.67.67,0,0,1,.61-.38.5.5,0,0,1,.52.38.64.64,0,0,1,.6-.38c.36,0,.56.2.56.62V13.4Z"/></g></g></svg>