<svg xmlns="http://www.w3.org/2000/svg" viewBox="0 0 69.62 27.11"><g id="Layer_2" data-name="Layer 2"><g id="Laag_1" data-name="Laag 1"><path d="M20.19,24.43a2.51,2.51,0,0,0,2.69-2.76V13.34h3.74v8.47c-.07,3.75-3,5.23-6.43,5.23s-6.35-1.48-6.42-5.23V13.34h3.74v8.33A2.51,2.51,0,0,0,20.19,24.43Zm-16,2.33H7.91V16h4.16V13.34H0V16H4.17ZM13.06,6.85c-.92.28-1.83.07-1.83-1.13,0-1.84,4.31-3.39,4.94-5,.14-.42.14-.7,0-.7s0,.21-.35.49C14.05,2.26,11,2.26,8.68,3.32,7.2,4,2.75,6.07,3.74,10.73c.07.21.21,1,.29,1s.21-.5.21-1.06c0-2.75,3.25-3.53,4.3-5.37.14-.21.36-.49.43-.35v.35C8.61,6.78,7.06,7.77,7.49,8.82c.56,1.42,2.25.36,2.75-.56.14-.21.21-.43.28-.36s.07.29,0,.57a4.54,4.54,0,0,1-1.83,3.39c-.36.28-1,.35-.92.56s.28.07.49,0c3.11-.21,5.72-3.88,6.43-6.28a.46.46,0,0,0,0-.43c-.07-.07-.21.07-.35.21a2.45,2.45,0,0,1-1.28.93ZM44.83,21.18a2.5,2.5,0,0,1,2.33-2.75c1.7,0,2.4,1.19,2.4,2.75Zm6.57,1.27V21.6c0-2.61-1.48-4.38-4.09-4.38-3,0-4.31,2.26-4.31,5s1.2,4.88,4.17,4.88c2.26,0,3.88-1.06,4.16-3.18H49.42a2,2,0,0,1-2.26,1.9c-1.83,0-2.4-1.62-2.4-3.32l6.64-.06Zm2.19-9.11h1.76V26.76H53.59Zm7.27,13.42V18.64h2.19v-1.2H60.86V16c0-1.06.49-1.27,1.55-1.27.29,0,.57.07.92.07V13.27a8,8,0,0,0-1.27-.21c-1.69,0-2.89.85-2.89,2.61v1.77H57.34v1.2h1.83v8.12ZM64,17.44v1.2h1.62v6c0,1.27,0,2.4,2.62,2.4a7.13,7.13,0,0,0,1.2-.14V25.56a4.28,4.28,0,0,1-.92.14,1,1,0,0,1-1.13-1v-6h2.19v-1.2H67.43V15l-1.77.5v2ZM30.36,26.76H35c5.72,0,6.36-4.88,6.36-6.71s-.64-6.71-6.36-6.71H30.36ZM32.2,15H35c3.11,0,4.38,2.33,4.38,5.09S38.06,25.13,35,25.13H32.2V15Z"/></g></g></svg>