<svg id="Laag_1" data-name="Laag 1" xmlns="http://www.w3.org/2000/svg" width="46.30629" height="46.28956" viewBox="0 0 46.30629 46.28956"><polygon points="0.08 0.062 3.65 0.062 3.65 1.257 1.475 1.257 1.475 2.293 3.212 2.293 3.212 3.489 1.475 3.489 1.475 4.565 3.762 4.565 3.762 5.76 0.08 5.76 0.08 0.062"/><path d="M4.7676,1.65607H6.09091v.69309a2.227,2.227,0,0,1-.01572.25576h.01572A1.42362,1.42362,0,0,1,7.39762,1.5845a.939.939,0,0,1,.15888.01571V2.955A1.47546,1.47546,0,0,0,7.278,2.93138a1.03607,1.03607,0,0,0-1.05969.71752,1.85144,1.85144,0,0,0-.07158.55779V5.76045H4.7676Z"/><path d="M9.82213,4.804a.76078.76078,0,0,0,.67734-.72538V3.99134H10.372c-.43818,0-.94011.12744-.94011.47049,0,.19116.11873.34218.39021.34218m.60579-1.60178h.05586V3.13066c0-.34306-.26276-.45479-.60579-.45479a2.44925,2.44925,0,0,0-1.10772.39106l-.47836-.97241a3.10484,3.10484,0,0,1,1.72138-.53421A1.627,1.627,0,0,1,11.863,3.23366V5.76071H10.60336v-.247a2.18212,2.18212,0,0,1,.01572-.25488h-.01572a1.27756,1.27756,0,0,1-1.16358.59706A1.31288,1.31288,0,0,1,8.04489,4.53341c0-1.19587,1.7458-1.33118,2.383-1.33118"/><path d="M13.2507,4.32583a1.72531,1.72531,0,0,0,1.044.41463c.20687,0,.40589-.05587.40589-.19116,0-.35877-1.92036-.39892-1.92036-1.73795,0-.77252.74109-1.25087,1.68991-1.25087a2.14745,2.14745,0,0,1,1.442.4705l-.46962.98026a1.63965,1.63965,0,0,0-.97242-.33519c-.20688,0-.40675.05587-.40675.1999,0,.31075,1.92125.35788,1.92125,1.6812,0,.70094-.62239,1.29888-1.68208,1.29888a2.47155,2.47155,0,0,1-1.64194-.60579Z"/><path d="M16.89412,1.65607h1.32331v.35876a2.2017,2.2017,0,0,1-.01572.25489h.01572a1.45873,1.45873,0,0,1,1.21944-.70879,1.18682,1.18682,0,0,1,1.147.69308h.01572A1.586,1.586,0,0,1,21.915,1.56093c.74895,0,1.33117.40589,1.33117,1.53805V5.76045H21.867v-2.431c0-.302-.055-.51763-.31862-.51763-.43818,0-.66952.31861-.75678.77252a2.27243,2.27243,0,0,0-.03232.47835V5.76045H19.381v-2.431c0-.302-.05589-.51763-.3195-.51763-.43033,0-.65292.3029-.74893.74109a2.6325,2.6325,0,0,0-.03929.50978V5.76045H16.89412Z"/><path d="M24.31692,1.65607h1.37917V4.06266c0,.3832.151.54207.43733.54207.59007,0,.86941-.51763.86941-1.13128V1.65607h1.37829V5.76045H27.05869V5.40256a2.20753,2.20753,0,0,1,.01572-.25576h-.01572a1.4236,1.4236,0,0,1-1.28317.70967c-.81355,0-1.4586-.38321-1.4586-1.53893Z"/><path d="M29.83424,4.32583a1.7253,1.7253,0,0,0,1.044.41463c.20688,0,.4059-.05587.4059-.19116,0-.35877-1.92037-.39892-1.92037-1.73795,0-.77252.7411-1.25087,1.68992-1.25087a2.14748,2.14748,0,0,1,1.442.4705l-.46962.98026a1.63969,1.63969,0,0,0-.97242-.33519c-.20688,0-.40675.05587-.40675.1999,0,.31075,1.92124.35788,1.92124,1.6812,0,.70094-.62239,1.29888-1.68208,1.29888a2.47154,2.47154,0,0,1-1.64193-.60579Z"/><path d="M0,8.66912H1.39489v3.60247a.87482.87482,0,0,0,.98811.91654.87484.87484,0,0,0,.98814-.91654V8.66912H4.766v3.60247a2.17412,2.17412,0,0,1-2.37517,2.19184A2.17908,2.17908,0,0,1,0,12.27159Z"/><path d="M6.00319,10.263H7.3265v.35876a2.2017,2.2017,0,0,1-.01572.25489H7.3265a1.44725,1.44725,0,0,1,1.30671-.70879A1.33869,1.33869,0,0,1,10.10756,11.706v2.66147H8.72837V11.96084c0-.38321-.151-.54208-.4539-.54208a.80653.80653,0,0,0-.81267.59008,1.64055,1.64055,0,0,0-.07944.5412v1.81738H6.00319Z"/><path d="M11.24914,8.66947H12.596V9.74576H11.24914Zm-.01571,1.59392H12.6126v4.10438H11.23343Z"/><path d="M13.26661,10.263h1.45074l.63723,2.184a7.02926,7.02926,0,0,1,.151.70879h.0166s.07158-.43819.151-.70879l.63022-2.184H17.762l-1.39492,4.10438H14.68507Z"/><path d="M20.78418,11.79289a.55842.55842,0,0,0-.54119-.58921.67369.67369,0,0,0-.66253.58921Zm-.50976-1.62535a1.82207,1.82207,0,0,1,1.89679,1.9841c0,.13618-.03228.43035-.03228.43035H19.549a.91531.91531,0,0,0,.95671.73323,2.15156,2.15156,0,0,0,1.13127-.41463l.50979.96456a2.76805,2.76805,0,0,1-1.75279.59794,2.1284,2.1284,0,0,1-2.25558-2.15171,2.04293,2.04293,0,0,1,2.136-2.14384"/><path d="M23.08087,10.263h1.32331v.69309a2.2284,2.2284,0,0,1-.01571.25576h.01571a1.42363,1.42363,0,0,1,1.30672-1.02042.93894.93894,0,0,1,.15887.01571v1.35474a1.47528,1.47528,0,0,0-.27845-.02357,1.03608,1.03608,0,0,0-1.0597.71753,1.85135,1.85135,0,0,0-.07157.55778v1.55376H23.08087Z"/><path d="M26.9398,12.9328a1.7253,1.7253,0,0,0,1.044.41463c.20688,0,.4059-.05586.4059-.19116,0-.35877-1.92037-.39892-1.92037-1.73794,0-.77252.7411-1.25088,1.68992-1.25088a2.14748,2.14748,0,0,1,1.442.4705l-.46962.98027a1.63966,1.63966,0,0,0-.97242-.3352c-.20688,0-.40675.05587-.40675.1999,0,.31075,1.92124.35788,1.92124,1.68121,0,.70093-.62239,1.29887-1.68208,1.29887a2.47154,2.47154,0,0,1-1.64193-.60579Z"/><path d="M30.59872,8.66947H31.9456V9.74576H30.59872ZM30.583,10.26339H31.9622v4.10438H30.583Z"/><path d="M33.34942,11.41064H32.823V10.33436h.56653V9.15507h1.339v1.17929h.86067v1.07628h-.86067v1.2596c0,.46176.46961.52549.73323.52549.11172,0,.1833-.00786.1833-.00786v1.19587a2.698,2.698,0,0,1-.37446.02357c-.6538,0-1.92124-.17545-1.92124-1.55376Z"/><path d="M36.5465,14.742a.91072.91072,0,0,0,.42246.15188.65657.65657,0,0,0,.66166-.41462l.07944-.19117-1.74493-4.02494h1.56162l.6058,1.88895c.07158.22259.151.63722.151.63722h.01572s.08029-.39019.13615-.61365l.51765-1.91252h1.50661L38.77763,14.8057a1.76712,1.76712,0,0,1-1.71351,1.23516,1.84806,1.84806,0,0,1-.95583-.28719Z"/><path d="M2.08036,19.85813a.65228.65228,0,0,0,.72537-.70094c0-.43033-.15975-.68609-.86067-.68609h-.4705v1.387Zm-2.00068-2.582H2.06376a2.963,2.963,0,0,1,1.1086.13531A1.65738,1.65738,0,0,1,4.2242,19.069a1.7339,1.7339,0,0,1-.85282,1.55377v.01658a3.3454,3.3454,0,0,1,.21474.34218l1.10769,1.99283H3.14005L2.12748,21.054H1.47456v1.92038H.07968Z"/><path d="M7.52525,21.92211a.92819.92819,0,0,0,.93228-.98812.93538.93538,0,1,0-1.86453,0,.92818.92818,0,0,0,.93225.98812m-.00783-3.14768A2.155,2.155,0,1,1,7.52525,23.07a2.1544,2.1544,0,1,1-.00783-4.29554"/><path d="M10.9384,20.01761H10.412V18.94133h.56653V17.762h1.339v1.17929h.86067v1.07628h-.86067v1.2596c0,.46176.46962.52548.73323.52548.11173,0,.18331-.00785.18331-.00785v1.19587a2.6981,2.6981,0,0,1-.37447.02357c-.65379,0-1.92124-.17545-1.92124-1.55376Z"/><path d="M14.40627,20.01761h-.52639V18.94133h.56653V17.762h1.339v1.17929h.86067v1.07628h-.86067v1.2596c0,.46176.46961.52548.73323.52548.11172,0,.1833-.00785.1833-.00785v1.19587a2.70417,2.70417,0,0,1-.37534.02357c-.65292,0-1.92036-.17545-1.92036-1.55376Z"/><path d="M20.01837,20.40064a.55868.55868,0,0,0-.54119-.59008.67374.67374,0,0,0-.66254.59008Zm-.50976-1.62621a1.82233,1.82233,0,0,1,1.89679,1.985c0,.13529-.03229.42946-.03229.42946h-2.5899a.91531.91531,0,0,0,.95671.73324,2.1541,2.1541,0,0,0,1.13127-.41376l.50978.96368a2.768,2.768,0,0,1-1.75278.59794,2.1284,2.1284,0,0,1-2.25559-2.1517,2.04293,2.04293,0,0,1,2.136-2.14384"/><path d="M22.31509,18.87H23.6384v.69309a2.227,2.227,0,0,1-.01572.25576h.01572a1.42362,1.42362,0,0,1,1.30671-1.02042.939.939,0,0,1,.15888.01571v1.35474a1.47546,1.47546,0,0,0-.27846-.02357,1.03608,1.03608,0,0,0-1.05969.71752,1.85148,1.85148,0,0,0-.07158.55779v1.55376H22.31509Z"/><path d="M27.81574,21.93c.41463,0,.80481-.302.80481-1.0117,0-.49406-.26274-.98026-.80481-.98026-.43035,0-.80482.3509-.80482.98026,0,.61365.32734,1.0117.80482,1.0117m-.3186-3.15554c.82924,0,1.07626.32734,1.07626.32734h.01571s-.00785-.08031-.00785-.18418V17.27653h1.37831v5.6983h-1.291v-.27147c0-.12745.00786-.23133.00786-.23133h-.01572a1.36933,1.36933,0,0,1-1.18713.59794,1.91019,1.91019,0,0,1-1.84969-2.1517,1.92046,1.92046,0,0,1,1.87327-2.14384"/><path d="M32.60737,22.018a.76078.76078,0,0,0,.67734-.72538v-.08729h-.12744c-.43818,0-.94011.12745-.94011.47049,0,.19117.11958.34218.39021.34218m.60579-1.60177H33.269V20.3446c0-.343-.26277-.45478-.60579-.45478a2.44925,2.44925,0,0,0-1.10772.39106l-.47836-.97241a3.10484,3.10484,0,0,1,1.72138-.53421,1.62695,1.62695,0,0,1,1.84966,1.67335v2.527H33.3886v-.247a2.18241,2.18241,0,0,1,.01572-.25489H33.3886a1.27756,1.27756,0,0,1-1.16358.59707,1.31289,1.31289,0,0,1-1.39489-1.32245c0-1.19587,1.7458-1.33117,2.383-1.33117"/><path d="M35.76526,18.87h1.32331v.35877a2.20279,2.20279,0,0,1-.01571.25488h.01571A1.45931,1.45931,0,0,1,38.308,18.774a1.18751,1.18751,0,0,1,1.147.69395h.01572a1.58658,1.58658,0,0,1,1.31545-.69395c.749,0,1.33117.40677,1.33117,1.53892v2.66147H40.73817v-2.431c0-.302-.055-.51764-.31863-.51764-.43818,0-.66951.31861-.75678.77252a2.27322,2.27322,0,0,0-.03231.47835v1.69779H38.25216v-2.431c0-.302-.05589-.51764-.31951-.51764-.43032,0-.65292.3029-.74892.74109a2.63175,2.63175,0,0,0-.0393.50978v1.69779H35.76526Z"/><path d="M26.655,39.42813c-.1187,0-.14665-.04539-.14665-.12919,0-.32821.54906-.77165.82575-.77165.096,0,.16586.04452.16586.11872,0,.12221-.59008.78212-.845.78212m6.10071-3.63651a6.36383,6.36383,0,0,1-3.51866,3.65222c-.87554,0-.07507-1.7266-1.29627-1.7266-.82314,0-2.18748.87639-2.18748,1.79818a.87362.87362,0,0,0,.98114.845c.82924,0,.6564-1.05708,1.15223-1.05708.433,0,.29764.80394,1.34164.80394.57612,0,.93574-.57524,1.23777-.57524.082,0,.19729.048.19729.30115,0,.41725-.4836,1.731-.48272,2.07314a.43166.43166,0,0,0,.42249.385A.34412.34412,0,0,0,30.968,42.066c.11958-.44168.23306-.84933.34828-1.22468,1.779-5.76987,3.38075-3.98741,3.38075-5.23565,0-.44606-.36575-.60667-.81181-.60667a1.28662,1.28662,0,0,0-1.12952.79259"/><path d="M21.9125,37.66242c-.165.11785.13878.66777.34915.57088a4.2272,4.2272,0,0,1,1.3041-.50454c.18594,0,.27321.08729.27321.19728,0,.40415-2.184,1.51623-2.184,2.52879,0,.24354.22259.6023.93225.6023,1.11209,0,2.43364-.5185,2.43364-.955a.19613.19613,0,0,0-.19726-.16323,12.12345,12.12345,0,0,1-1.87849.45827c-.192,0-.34478-.07769-.34478-.21037,0-.61539,2.08622-1.57209,2.08622-2.2966a.86815.86815,0,0,0-.94709-.83187,3.727,3.727,0,0,0-1.827.604"/><path d="M43.70246,38.44585c-.1746.65817-1.41413.84584-2.09062.84584-.67737,0-.66863-.18854-.81267-.87726-.13618-.65119-.4085-.81267-.769-.81267-.26625,0-.53248.25488-.831.53072-.51586.47922-1.02128,1.12953-1.29625,1.12953-.23306,0-.41287-.27234-.41287-.54469,0-.24877.19465-.35178.19465-.62936,0-.19291-.10738-.57262-.39194-.57262-.43035,0-1.10772.749-1.2273.86853-.35265.35266-.84235,1.05447-1.34689,1.05447-.75417,0-.06721-1.17754-.96978-1.17754a.6678.6678,0,0,0-.65905.63634c0,.357.23134.5508.48534.82489.28719.309.50715.57524.9.57524,1.17318,0,1.43506-1.28752,2.04085-1.28752.19988,0,.29242.18243.31336.357.05325.4382.52286.64595,1.06669.64595,1.03,0,1.051-.91131,1.68819-.91131.86765,0,.70792,1.02479,1.67161,1.02479a7.23594,7.23594,0,0,0,1.0274-.14054,5.1764,5.1764,0,0,0,1.62185-.32821c.7245-.43471.34391-1.72224,1.099-1.72224.25749,0,.4539.17458.4539.59969,0,.52636-.18418,1.75278-2.8055,3.09617-.268.144-.45392.31949-.45392.47312,0,.15886.16324.2479.31775.2479.59007,0,3.79011-1.72921,3.79011-3.69848,0-1.1339-.4958-1.47956-1.2203-1.47956-1.15921,0-1.22469.673-1.38353,1.27181"/><path d="M21.14636,30.88025c-1.96317,0-5.59529,1.29364-9.43344,6.79989C9.09422,38.42211.07978,41.211.07978,43.2798c0,.42336.63808,1.02217,1.55725,1.02217.43994,0,.77514-.165.77514-.41114,0-.47835-1.14525-.453-1.14525-.79347,0-.92527,5.26009-2.92683,9.8-4.28506-1.74665,3.331-.77426,7.47726,3.3441,7.47726,1.95617,0,3.90621-1.19587,5.09947-1.92125a.20673.20673,0,1,0-.21647-.35178,10.10991,10.10991,0,0,1-4.49543,1.44028c-4.42473,0-3.92371-4.39679-2.42056-7.026a20.42141,20.42141,0,0,1,5.35525-.84061,3.55464,3.55464,0,0,1,2.23984.68349c.3003.09689.50193-.144.31077-.4059-.30464-.41812-.872-1.1339-2.91724-1.1339a21.99037,21.99037,0,0,0-4.3357.60667c1.87936-2.52618,4.9441-5.64418,8.26287-5.64418.94275,0,2.20759.33258,2.20759-.11959,0-.60142-1.84271-.69744-2.35509-.69657"/><polygon points="0.08 0 3.65 0 3.65 1.195 1.475 1.195 1.475 2.231 3.212 2.231 3.212 3.427 1.475 3.427 1.475 4.502 3.762 4.502 3.762 5.698 0.08 5.698 0.08 0"/><path d="M4.7676,1.594H6.09091v.69309a2.227,2.227,0,0,1-.01572.25576h.01572A1.42362,1.42362,0,0,1,7.39762,1.52243a.939.939,0,0,1,.15888.01571V2.89288A1.47546,1.47546,0,0,0,7.278,2.86931a1.03607,1.03607,0,0,0-1.05969.71753,1.85132,1.85132,0,0,0-.07158.55778V5.69838H4.7676Z"/><path d="M9.82205,4.74186a.76078.76078,0,0,0,.67734-.72538V3.92919H10.372c-.43818,0-.94011.12744-.94011.47049,0,.19117.11958.34218.39021.34218m.60579-1.60178h.05586V3.06851c0-.343-.26276-.45478-.60579-.45478a2.44929,2.44929,0,0,0-1.10772.391l-.47836-.97241a3.10484,3.10484,0,0,1,1.72138-.53421,1.627,1.627,0,0,1,1.84966,1.67335v2.527H10.60328v-.247a2.18219,2.18219,0,0,1,.01572-.25489h-.01572A1.27756,1.27756,0,0,1,9.4397,5.7937,1.31288,1.31288,0,0,1,8.04481,4.47126c0-1.19587,1.7458-1.33118,2.383-1.33118"/><path d="M13.2507,4.26368a1.72531,1.72531,0,0,0,1.044.41463c.20687,0,.40589-.05586.40589-.19116,0-.35877-1.92036-.39892-1.92036-1.73795,0-.77251.74109-1.25087,1.68991-1.25087a2.14745,2.14745,0,0,1,1.442.4705l-.46962.98027a1.63962,1.63962,0,0,0-.97242-.3352c-.20688,0-.40675.05587-.40675.1999,0,.31075,1.92125.35788,1.92125,1.68121,0,.70093-.62239,1.29887-1.68208,1.29887a2.47155,2.47155,0,0,1-1.64194-.60579Z"/><path d="M16.89412,1.594h1.32331v.35876a2.2017,2.2017,0,0,1-.01572.25489h.01572A1.45928,1.45928,0,0,1,19.43687,1.498a1.18753,1.18753,0,0,1,1.147.694h.01572A1.58656,1.58656,0,0,1,21.915,1.498c.74895,0,1.33117.40676,1.33117,1.53892V5.69838H21.867v-2.431c0-.302-.055-.51764-.31862-.51764-.43818,0-.66952.31861-.75678.77252a2.27248,2.27248,0,0,0-.03232.47835V5.69838H19.381v-2.431c0-.302-.05589-.51764-.3195-.51764-.43033,0-.65292.3029-.74893.7411a2.63233,2.63233,0,0,0-.03929.50977V5.69838H16.89412Z"/><path d="M24.31692,1.594h1.37917V4.00059c0,.38321.151.54207.43733.54207.59007,0,.86941-.51763.86941-1.13128V1.594h1.37829V5.69838H27.05869V5.34049a2.20753,2.20753,0,0,1,.01572-.25576h-.01572a1.4236,1.4236,0,0,1-1.28317.70967c-.81355,0-1.4586-.38321-1.4586-1.53892Z"/><path d="M29.83424,4.26368a1.7253,1.7253,0,0,0,1.044.41463c.20688,0,.4059-.05586.4059-.19116,0-.35877-1.92037-.39892-1.92037-1.73795,0-.77251.7411-1.25087,1.68992-1.25087a2.14748,2.14748,0,0,1,1.442.4705l-.46962.98027a1.63966,1.63966,0,0,0-.97242-.3352c-.20688,0-.40675.05587-.40675.1999,0,.31075,1.92124.35788,1.92124,1.68121,0,.70093-.62239,1.29887-1.68208,1.29887a2.47154,2.47154,0,0,1-1.64193-.60579Z"/><path d="M0,8.607H1.39489v3.60247A.87482.87482,0,0,0,2.383,13.126a.87484.87484,0,0,0,.98814-.91654V8.607H4.766v3.60247a2.17412,2.17412,0,0,1-2.37517,2.19185A2.17908,2.17908,0,0,1,0,12.20944Z"/><path d="M6.00319,10.201H7.3265v.35877a2.20164,2.20164,0,0,1-.01572.25488H7.3265a1.44727,1.44727,0,0,1,1.30671-.70879,1.33869,1.33869,0,0,1,1.47435,1.53805v2.66147H8.72837V11.89877c0-.38321-.151-.54207-.4539-.54207a.80652.80652,0,0,0-.81267.59007,1.64059,1.64059,0,0,0-.07944.5412v1.81738H6.00319Z"/><path d="M11.24914,8.60662H12.596V9.68291H11.24914Zm-.01571,1.59392H12.6126v4.10438H11.23343Z"/><path d="M13.26661,10.201h1.45074l.63723,2.184a7.02923,7.02923,0,0,1,.151.7088h.0166s.07158-.4382.151-.7088l.63022-2.184H17.762l-1.39492,4.10438H14.68507Z"/><path d="M20.78418,11.73074a.55843.55843,0,0,0-.54119-.58921.67369.67369,0,0,0-.66253.58921Zm-.50976-1.62535a1.82207,1.82207,0,0,1,1.89679,1.98411c0,.13617-.03228.43034-.03228.43034H19.549a.91531.91531,0,0,0,.95671.73323,2.15159,2.15159,0,0,0,1.13127-.41462l.50979.96455a2.76805,2.76805,0,0,1-1.75279.59794,2.1284,2.1284,0,0,1-2.25558-2.1517,2.04293,2.04293,0,0,1,2.136-2.14385"/><path d="M23.08087,10.201h1.32331v.69309a2.2284,2.2284,0,0,1-.01571.25576h.01571A1.42275,1.42275,0,0,1,25.7109,10.1294a.93894.93894,0,0,1,.15887.01571v1.35474a1.47528,1.47528,0,0,0-.27845-.02357,1.03609,1.03609,0,0,0-1.0597.71753,1.85139,1.85139,0,0,0-.07157.55778v1.55376H23.08087Z"/><path d="M26.9398,12.87065a1.72528,1.72528,0,0,0,1.044.41464c.20688,0,.4059-.05587.4059-.19117,0-.35877-1.92037-.39892-1.92037-1.73794,0-.77252.7411-1.25088,1.68992-1.25088a2.14748,2.14748,0,0,1,1.442.4705l-.46962.98027a1.63966,1.63966,0,0,0-.97242-.3352c-.20773,0-.40675.05587-.40675.1999,0,.31075,1.92124.35788,1.92124,1.68121,0,.70093-.62239,1.29887-1.68208,1.29887a2.47154,2.47154,0,0,1-1.64193-.60579Z"/><path d="M30.59872,8.60662H31.9456V9.68291H30.59872ZM30.583,10.20054H31.9622v4.10438H30.583Z"/><path d="M33.34942,11.34849H32.823V10.27221h.56653V9.09292h1.339v1.17929h.86067v1.07628h-.86067v1.2596c0,.46176.46961.52549.73323.52549.11172,0,.1833-.00786.1833-.00786V14.3216a2.69916,2.69916,0,0,1-.37446.02356c-.6538,0-1.92124-.17545-1.92124-1.55376Z"/><path d="M36.5465,14.67983a.91069.91069,0,0,0,.42246.15189.65656.65656,0,0,0,.66166-.41463l.07944-.19117L35.96513,10.201h1.56162l.6058,1.889c.07158.22258.151.63721.151.63721h.01572s.08029-.39019.13615-.61365L38.954,10.201h1.50574l-1.68206,4.54257a1.76711,1.76711,0,0,1-1.71351,1.23516,1.84806,1.84806,0,0,1-.95583-.28719Z"/><path d="M2.08036,19.796a.65227.65227,0,0,0,.72537-.70093c0-.43034-.15975-.6861-.86067-.6861h-.4705v1.387Zm-2.00068-2.582H2.06376a2.963,2.963,0,0,1,1.1086.13531A1.65738,1.65738,0,0,1,4.2242,19.00688a1.73389,1.73389,0,0,1-.85282,1.55377v.01658a3.3454,3.3454,0,0,1,.21474.34218l1.10769,1.99283H3.14005L2.12748,20.99186H1.47456v1.92038H.07968Z"/><path d="M7.52525,21.86a.92819.92819,0,0,0,.93228-.98812.93538.93538,0,1,0-1.86453,0,.92819.92819,0,0,0,.93225.98812m-.00783-3.14768a2.155,2.155,0,1,1,.00783,4.29554,2.1544,2.1544,0,1,1-.00783-4.29554"/><path d="M10.93832,19.95546h-.52638V18.87918h.56653V17.69989h1.339v1.17929h.86067v1.07628h-.86067v1.2596c0,.46176.46962.52549.73323.52549.11173,0,.18331-.00786.18331-.00786v1.19587a2.6981,2.6981,0,0,1-.37447.02357c-.65379,0-1.92124-.17545-1.92124-1.55376Z"/><path d="M14.40616,19.95546h-.52638V18.87918h.56653V17.69989h1.339v1.17929H16.646v1.07628h-.86067v1.2596c0,.46176.46962.52549.73323.52549.11173,0,.18331-.00786.18331-.00786v1.19587a2.6981,2.6981,0,0,1-.37447.02357c-.65379,0-1.92124-.17545-1.92124-1.55376Z"/><path d="M20.01837,20.33849a.55868.55868,0,0,0-.54119-.59008.67374.67374,0,0,0-.66254.59008Zm-.50976-1.62621a1.82233,1.82233,0,0,1,1.89679,1.985c0,.1353-.03229.42947-.03229.42947h-2.5899a.91531.91531,0,0,0,.95671.73324,2.1541,2.1541,0,0,0,1.13127-.41376l.50978.96368a2.768,2.768,0,0,1-1.75278.59794,2.1284,2.1284,0,0,1-2.25559-2.1517,2.04292,2.04292,0,0,1,2.136-2.14384"/><path d="M22.31509,18.80786H23.6384V19.501a2.22693,2.22693,0,0,1-.01572.25575h.01572a1.42362,1.42362,0,0,1,1.30671-1.02041.939.939,0,0,1,.15888.01571v1.35474a1.47546,1.47546,0,0,0-.27846-.02357,1.03607,1.03607,0,0,0-1.05969.71752,1.85144,1.85144,0,0,0-.07158.55779v1.55376H22.31509Z"/><path d="M27.81574,21.86781c.41463,0,.80481-.302.80481-1.01169,0-.49406-.26274-.98027-.80481-.98027-.43035,0-.80482.35091-.80482.98027,0,.61365.32734,1.01169.80482,1.01169m-.3186-3.15553c.82924,0,1.07626.32733,1.07626.32733h.01571s-.00785-.0803-.00785-.18418v-1.641h1.37831v5.69829h-1.291V22.6412c0-.12744.00786-.23132.00786-.23132h-.01572a1.36933,1.36933,0,0,1-1.18713.59794,1.9097,1.9097,0,0,1-1.84969-2.1517,1.92046,1.92046,0,0,1,1.87327-2.14384"/><path d="M32.60737,21.9558a.76078.76078,0,0,0,.67734-.72538v-.08729h-.12744c-.43818,0-.94011.12745-.94011.4705,0,.19116.11958.34217.39021.34217m.60579-1.60177H33.269v-.07158c0-.34305-.26277-.45478-.60579-.45478a2.44925,2.44925,0,0,0-1.10772.39106l-.47836-.97241a3.10484,3.10484,0,0,1,1.72138-.53421,1.627,1.627,0,0,1,1.84966,1.67335v2.527H33.3886v-.247a2.18212,2.18212,0,0,1,.01572-.25488H33.3886a1.27756,1.27756,0,0,1-1.16358.59706,1.31289,1.31289,0,0,1-1.39489-1.32245c0-1.19587,1.7458-1.33117,2.383-1.33117"/><path d="M35.76526,18.80786h1.32331v.35877a2.203,2.203,0,0,1-.01571.25488h.01571a1.45931,1.45931,0,0,1,1.21945-.70967,1.18752,1.18752,0,0,1,1.147.694h.01572a1.58658,1.58658,0,0,1,1.31545-.694c.749,0,1.33117.40678,1.33117,1.53893v2.66147H40.73817v-2.431c0-.302-.055-.51763-.31863-.51763-.43818,0-.66951.31861-.75678.77252a2.27317,2.27317,0,0,0-.03231.47835v1.69779H38.25216v-2.431c0-.302-.05589-.51763-.31951-.51763-.43032,0-.65292.3029-.74892.74109a2.63175,2.63175,0,0,0-.0393.50978v1.69779H35.76526Z"/><path d="M26.655,39.366c-.1187,0-.14665-.04539-.14665-.12918,0-.32821.54906-.77165.82575-.77165.096,0,.16586.04452.16586.11871,0,.12221-.59008.78212-.845.78212m6.10071-3.6365a6.36684,6.36684,0,0,1-3.51866,3.65222c-.87554,0-.07507-1.7266-1.29627-1.7266-.82314,0-2.18748.87639-2.18748,1.79818a.87362.87362,0,0,0,.98114.845c.82924,0,.6564-1.05708,1.15223-1.05708.433,0,.29764.80394,1.34164.80394.57612,0,.93574-.57524,1.23777-.57524.082,0,.19729.048.19729.30115,0,.41725-.4836,1.731-.48272,2.07314a.43166.43166,0,0,0,.42249.38495.34412.34412,0,0,0,.36487-.22521c.11958-.44169.23306-.84933.34828-1.22468,1.779-5.76987,3.38075-3.98741,3.38075-5.23566,0-.446-.36575-.60666-.81181-.60666a1.28662,1.28662,0,0,0-1.12952.79259"/><path d="M21.9125,37.60027c-.165.11784.13878.66777.34915.57088a4.2272,4.2272,0,0,1,1.3041-.50454c.18594,0,.27321.08729.27321.19728,0,.40415-2.184,1.51623-2.184,2.52879,0,.24354.22259.6023.93225.6023,1.11209,0,2.43364-.5185,2.43364-.95495a.19613.19613,0,0,0-.19726-.16323,12.12345,12.12345,0,0,1-1.87849.45827c-.192,0-.34478-.07769-.34478-.21037,0-.6154,2.08622-1.57209,2.08622-2.2966a.86815.86815,0,0,0-.94709-.83187,3.727,3.727,0,0,0-1.827.604"/><path d="M43.70246,38.3837c-.1746.65817-1.41413.84584-2.09062.84584-.67737,0-.66863-.18854-.81267-.87726-.13618-.65119-.4085-.81267-.769-.81267-.26625,0-.53248.25488-.831.53072-.51586.47922-1.02128,1.12953-1.29625,1.12953-.23306,0-.41287-.27234-.41287-.54469,0-.24877.19465-.35178.19465-.62936,0-.19291-.10738-.57262-.39194-.57262-.43035,0-1.10772.749-1.2273.86854-.35265.35265-.84235,1.05446-1.34689,1.05446-.75417,0-.06721-1.17754-.96978-1.17754a.6678.6678,0,0,0-.65905.63634c0,.357.23134.5508.48534.82489.28719.309.50715.57524.9.57524,1.17318,0,1.43506-1.28752,2.04085-1.28752.19988,0,.29242.18331.31336.357.05325.4382.52286.646,1.06669.646,1.03,0,1.051-.91131,1.68819-.91131.86765,0,.70792,1.02479,1.67161,1.02479a7.23594,7.23594,0,0,0,1.0274-.14054,5.17611,5.17611,0,0,0,1.62185-.32821c.7245-.4347.34391-1.72224,1.099-1.72224.25749,0,.4539.17459.4539.59969,0,.52636-.18418,1.75278-2.8055,3.09618-.268.144-.45392.31948-.45392.47311,0,.15887.16324.2479.31775.2479.59007,0,3.79011-1.72921,3.79011-3.69848,0-1.13389-.4958-1.47956-1.2203-1.47956-1.15921,0-1.22469.673-1.38353,1.27181"/><path d="M21.14626,30.8181c-1.96318,0-5.5953,1.29364-9.43344,6.79989C9.09412,38.36.07968,41.14888.07968,43.21765c0,.42336.63808,1.02217,1.55725,1.02217.43994,0,.77513-.165.77513-.41114,0-.47835-1.14525-.453-1.14525-.79347,0-.92527,5.2601-2.92683,9.8-4.28507C9.3202,42.082,10.2926,46.22741,14.411,46.22741c1.95616,0,3.9062-1.19587,5.09946-1.92126a.20673.20673,0,1,0-.21646-.35178,10.10983,10.10983,0,0,1-4.49544,1.44029c-4.42473,0-3.92371-4.3968-2.42056-7.026a20.42148,20.42148,0,0,1,5.35525-.84061,3.56063,3.56063,0,0,1,2.23985.68348c.3003.0969.50193-.144.31077-.40589-.30464-.41812-.872-1.1339-2.91725-1.1339a21.991,21.991,0,0,0-4.3357.60666c1.87937-2.52617,4.94411-5.64417,8.26288-5.64417.94274,0,2.20758.33258,2.20758-.11959,0-.60143-1.84271-.69745-2.35508-.69657"/></svg>